<svg xmlns="http://www.w3.org/2000/svg" width="64" height="64" viewBox="0 0 64 64" fill="none">
  <rect width="64" height="64" rx="16" fill="url(#paint0_linear)" />
  <path d="M32 16C25.373 16 20 21.373 20 28V36C20 42.627 25.373 48 32 48C38.627 48 44 42.627 44 36V28C44 21.373 38.627 16 32 16ZM40 36C40 40.418 36.418 44 32 44C27.582 44 24 40.418 24 36V28C24 23.582 27.582 20 32 20C36.418 20 40 23.582 40 28V36Z" fill="white"/>
  <path d="M32 24C29.791 24 28 25.791 28 28V36C28 38.209 29.791 40 32 40C34.209 40 36 38.209 36 36V28C36 25.791 34.209 24 32 24Z" fill="white"/>
  <path d="M20 40H16V36C16 34.895 15.105 34 14 34C12.895 34 12 34.895 12 36V40C12 42.209 13.791 44 16 44H20C21.105 44 22 43.105 22 42C22 40.895 21.105 40 20 40Z" fill="white"/>
  <path d="M50 34C48.895 34 48 34.895 48 36V40H44C42.895 40 42 40.895 42 42C42 43.105 42.895 44 44 44H48C50.209 44 52 42.209 52 40V36C52 34.895 51.105 34 50 34Z" fill="white"/>
  <defs>
    <linearGradient id="paint0_linear" x1="0" y1="0" x2="64" y2="64" gradientUnits="userSpaceOnUse">
      <stop stop-color="#C4B5FD" />
      <stop offset="1" stop-color="#8B5CF6" />
    </linearGradient>
  </defs>
</svg>